<?xml version="1.0" encoding="UTF-8"?><svg id="Ebene_2" xmlns="http://www.w3.org/2000/svg" viewBox="0 0 85 80"><defs><style>.cls-1{opacity:.75;}.cls-2{fill:#a58728;}.cls-3{fill:#eacf69;}</style></defs><g id="Ebene_1-2"><polygon class="cls-1" points="80 10 75 10 70 10 65 10 65 5 65 0 60 0 55 0 50 0 50 5 50 10 45 10 40 10 35 10 35 5 35 0 30 0 25 0 20 0 20 5 20 10 15 10 10 10 5 10 0 10 0 15 0 20 0 25 0 30 0 35 0 40 0 45 0 50 0 55 0 60 0 65 0 70 0 75 0 80 5 80 10 80 15 80 20 80 25 80 30 80 35 80 40 80 45 80 50 80 55 80 60 80 65 80 70 80 75 80 80 80 85 80 85 75 85 70 85 65 85 60 85 55 85 50 85 45 85 40 85 35 85 30 85 25 85 20 85 15 85 10 80 10"/><polygon class="cls-2" points="75 15 70 15 65 15 60 15 60 10 60 5 55 5 55 10 55 15 50 15 45 15 40 15 35 15 30 15 30 10 30 5 25 5 25 10 25 15 20 15 15 15 10 15 5 15 5 20 5 25 5 30 5 35 5 40 5 45 5 50 5 55 5 60 5 65 5 70 5 75 10 75 15 75 20 75 25 75 30 75 35 75 40 75 45 75 50 75 55 75 60 75 65 75 70 75 75 75 80 75 80 70 80 65 80 60 80 55 80 50 80 45 80 40 80 35 80 30 80 25 80 20 80 15 75 15"/><path class="cls-3" d="m10,20v50h65V20H10Zm15,45h-10v-10h10v10Zm0-15h-10v-10h10v10Zm0-15h-10v-10h10v10Zm15,30h-10v-10h10v10Zm0-15h-10v-10h10v10Zm0-15h-10v-10h10v10Zm15,30h-10v-10h10v10Zm0-15h-10v-10h10v10Zm0-15h-10v-10h10v10Zm15,15h-10v-10h10v10Zm0-15h-10v-10h10v10Z"/></g></svg>