<?xml version="1.0" encoding="UTF-8"?><svg id="Ebene_2" xmlns="http://www.w3.org/2000/svg" viewBox="0 0 55 55"><defs><style>.cls-1{fill:#1e293b;}</style></defs><g id="Ebene_1-2"><rect class="cls-1" y="50" width="5" height="5"/><rect class="cls-1" x="5" y="45" width="5" height="5"/><rect class="cls-1" x="10" y="40" width="5" height="5"/><rect class="cls-1" x="15" y="35" width="5" height="5"/><rect class="cls-1" x="20" y="30" width="5" height="5"/><rect class="cls-1" x="30" y="20" width="5" height="5"/><rect class="cls-1" x="35" y="15" width="5" height="5"/><rect class="cls-1" x="40" y="10" width="5" height="5"/><rect class="cls-1" x="45" y="5" width="5" height="5"/><rect class="cls-1" x="50" width="5" height="5"/><rect class="cls-1" x="50" y="50" width="5" height="5"/><rect class="cls-1" x="45" y="45" width="5" height="5"/><rect class="cls-1" x="40" y="40" width="5" height="5"/><rect class="cls-1" x="35" y="35" width="5" height="5"/><rect class="cls-1" x="30" y="30" width="5" height="5"/><rect class="cls-1" x="25" y="25" width="5" height="5"/><rect class="cls-1" x="20" y="20" width="5" height="5"/><rect class="cls-1" x="15" y="15" width="5" height="5"/><rect class="cls-1" x="10" y="10" width="5" height="5"/><rect class="cls-1" x="5" y="5" width="5" height="5"/><rect class="cls-1" width="5" height="5"/></g></svg>