<?xml version="1.0" encoding="UTF-8"?><svg id="Ebene_2" xmlns="http://www.w3.org/2000/svg" viewBox="0 0 115 135"><defs><style>.cls-1{opacity:.75;}.cls-2{fill:#a58728;}.cls-3{fill:#eacf69;}</style></defs><g id="Ebene_1-2"><polygon class="cls-1" points="110 20 105 20 100 20 100 15 95 15 90 15 85 15 85 10 80 10 75 10 70 10 70 5 65 5 60 5 55 5 55 0 50 0 45 0 40 0 35 0 30 0 30 5 30 10 30 15 25 15 25 20 25 25 25 30 20 30 20 35 20 40 20 45 15 45 15 50 15 55 15 60 10 60 10 65 10 70 10 75 5 75 5 80 5 85 5 90 0 90 0 95 0 100 0 105 0 110 0 115 5 115 10 115 15 115 15 120 20 120 25 120 30 120 30 125 35 125 40 125 45 125 45 130 50 130 55 130 60 130 60 135 65 135 70 135 75 135 80 135 85 135 85 130 85 125 85 120 90 120 90 115 90 110 90 105 95 105 95 100 95 95 95 90 100 90 100 85 100 80 100 75 105 75 105 70 105 65 105 60 110 60 110 55 110 50 110 45 115 45 115 40 115 35 115 30 115 25 115 20 110 20"/><polygon class="cls-2" points="105 25 100 25 95 25 95 20 90 20 85 20 80 20 80 15 75 15 70 15 65 15 65 10 60 10 55 10 50 10 50 5 45 5 40 5 35 5 35 10 35 15 35 20 30 20 30 25 30 30 30 35 25 35 25 40 25 45 25 50 20 50 20 55 20 60 20 65 15 65 15 70 15 75 15 80 10 80 10 85 10 90 10 95 5 95 5 100 5 105 5 110 10 110 15 110 20 110 20 115 25 115 30 115 35 115 35 120 40 120 45 120 50 120 50 125 55 125 60 125 65 125 65 130 70 130 75 130 80 130 80 125 80 120 80 115 85 115 85 110 85 105 85 100 90 100 90 95 90 90 90 85 95 85 95 80 95 75 95 70 100 70 100 65 100 60 100 55 105 55 105 50 105 45 105 40 110 40 110 35 110 30 110 25 105 25"/><path class="cls-3" d="m95,30v-5h-15v-5h-15v-5h-15v-5h-10v10h-5v15h-5v15h-5v15h-5v15h-5v15h-5v10h10v5h15v5h15v5h15v5h10v-10h5v-15h5v-15h5v-15h5v-15h5v-15h5v-10h-10ZM30,70h5v5h15v5h5v5h-5v-5h-15v-5h-5v-5Zm-5,10h5v5h15v5h-15v-5h-5v-5Zm30,25h-15v-5h-15v-5h-5v-5h5v5h15v5h15v5Zm15,5h-10v-5h10v5Zm5-10h-15v-5h-10v-5h10v5h15v5Zm5-10h-15v-5h-5v-5h5v5h15v5Zm5-15h-15v-5h-15v-5h-15v-5h-5v-5h5v5h15v5h15v5h15v5Zm10-30h-5v15h-15v-5h-15v-5h-15v-5h-5v-15h5v-10h10v5h10v5h15v5h15v10Z"/></g></svg>