<?xml version="1.0" encoding="UTF-8"?><svg id="Ebene_2" xmlns="http://www.w3.org/2000/svg" viewBox="0 0 85 90"><defs><style>.cls-1{fill:#536175;}.cls-2{opacity:.75;}.cls-3{fill:#a58728;}.cls-4{fill:#eacf69;}.cls-5{fill:#d4deeb;}</style></defs><g id="Ebene_1-2"><polygon class="cls-2" points="80 30 80 25 75 25 75 20 70 20 65 20 65 15 70 15 70 10 70 5 70 0 65 0 60 0 55 0 55 5 50 5 50 10 45 10 45 15 40 15 40 10 35 10 35 5 30 5 30 0 25 0 20 0 15 0 15 5 15 10 15 15 20 15 20 20 15 20 10 20 10 25 5 25 5 30 0 30 0 35 0 75 0 80 5 80 5 85 10 85 10 90 15 90 70 90 75 90 75 85 80 85 80 80 85 80 85 75 85 35 85 30 80 30"/><rect class="cls-3" x="50" y="15" width="5" height="5"/><rect class="cls-3" x="55" y="10" width="5" height="5"/><rect class="cls-3" x="60" y="5" width="5" height="5"/><rect class="cls-3" x="30" y="15" width="5" height="5"/><rect class="cls-3" x="25" y="10" width="5" height="5"/><rect class="cls-3" x="20" y="5" width="5" height="5"/><path class="cls-3" d="m75,35v-5h-5v-5h-20v-5h-15v5H15v5h-5v5h-5v40h5v5h5v5h55v-5h5v-5h5v-40h-5Z"/><path class="cls-1" d="m60,40H20v30h45v-30h-5Z"/><path class="cls-4" d="m70,35v-5H15v5h-5v40h5v5h55v-5h5v-40h-5Zm0,35h-5v5H20v-5h-5v-30h5v-5h45v5h5v30Z"/><rect class="cls-5" x="25" y="45" width="35" height="20"/></g></svg>